<?xml version="1.0" standalone="no"?>
<!DOCTYPE svg PUBLIC "-//W3C//DTD SVG 20010904//EN"
 "http://www.w3.org/TR/2001/REC-SVG-20010904/DTD/svg10.dtd">
<svg version="1.0" xmlns="http://www.w3.org/2000/svg"
 width="1925.000000pt" height="1271.000000pt" viewBox="0 0 1925.000000 1271.000000"
 preserveAspectRatio="xMidYMid meet">

<g transform="translate(0.000000,1271.000000) scale(0.100000,-0.100000)"
fill="#000000" stroke="none">
<path d="M7075 8870 c-185 -15 -340 -48 -550 -120 -149 -51 -371 -159 -490
-238 -477 -318 -782 -818 -890 -1462 -34 -201 -45 -342 -45 -575 0 -787 226
-1653 652 -2500 l66 -130 21 70 c11 39 48 205 80 370 70 348 112 511 176 667
101 248 225 432 407 603 166 157 350 271 638 395 606 261 1002 596 1220 1029
198 393 206 840 22 1206 -234 467 -734 729 -1307 685z m325 -685 c204 -49 357
-190 426 -395 29 -85 27 -271 -4 -370 -62 -194 -181 -364 -365 -517 -168 -140
-320 -227 -629 -363 -363 -159 -610 -323 -845 -562 -56 -56 -112 -116 -126
-133 -14 -16 -27 -28 -30 -25 -8 9 -46 290 -58 435 -14 169 -6 477 16 625 101
671 459 1101 1064 1275 192 55 397 66 551 30z"/>
</g>
</svg>
