<svg width="150" height="125" viewBox="0 0 150 125" fill="none" xmlns="http://www.w3.org/2000/svg">
<g id="logo">
<g id="panaverse-logo">
<path id="Vector" d="M81.1168 5.10927C76.8907 5.45193 73.3499 6.20578 68.5526 7.85054C65.1489 9.01559 60.0775 11.4827 57.3591 13.2874C46.4625 20.5518 39.4951 31.9738 37.028 46.6853C36.2513 51.2769 36 54.4979 36 59.8205C36 77.7987 41.1627 97.5816 50.8943 116.93L52.402 119.9L52.8817 118.301C53.133 117.41 53.9782 113.618 54.7092 109.849C56.3083 101.899 57.2677 98.1755 58.7297 94.6119C61.037 88.9466 63.8696 84.7433 68.0272 80.837C71.8193 77.2505 76.0226 74.6463 82.6017 71.8136C96.4451 65.8513 105.491 58.1986 110.471 48.3072C114.994 39.3295 115.177 29.1183 110.974 20.7574C105.628 10.0893 94.2064 4.10414 81.1168 5.10927ZM88.5411 20.7574C93.2012 21.8767 96.6964 25.0977 98.2726 29.7807C98.9351 31.7225 98.8894 35.9714 98.1812 38.233C96.7649 42.6647 94.0465 46.5482 89.8432 50.0433C86.0054 53.2415 82.5331 55.2289 75.4743 58.3357C67.182 61.9679 61.5395 65.7143 56.1712 71.174C54.8919 72.4532 53.6127 73.8239 53.2929 74.2122C52.9731 74.5777 52.6761 74.8518 52.6076 74.7833C52.4248 74.5777 51.5567 68.1586 51.2826 64.8462C50.9628 60.9856 51.1455 53.9496 51.6481 50.5687C53.9553 35.2404 62.1335 25.4175 75.9541 21.4427C80.3401 20.1863 85.0231 19.935 88.5411 20.7574Z" fill="url(#paint0_linear_9_2)"/>
</g>
</g>
<defs>
<linearGradient id="paint0_linear_9_2" x1="47.5" y1="-25" x2="107" y2="115.5" gradientUnits="userSpaceOnUse">
<stop offset="0.0944536" stop-color="#EF91B9"/>
<stop offset="0.49818" stop-color="#BE2166"/>
<stop offset="0.744102" stop-color="#821A57"/>
</linearGradient>
</defs>
</svg>
